<svg width="31" height="40" viewBox="0 0 31 40" fill="none" xmlns="http://www.w3.org/2000/svg">
<path fill-rule="evenodd" clip-rule="evenodd" d="M9 2C9 0.89543 9.89543 0 11 0H20C21.1046 0 22 0.89543 22 2V4H29C30.1046 4 31 4.89543 31 6V38C31 39.1046 30.1046 40 29 40H2C0.89543 40 0 39.1046 0 38V6C0 4.89543 0.89543 4 2 4H9V2ZM9 8H4V36H27V8H22C22 9.10457 21.1046 10 20 10H11C9.89543 10 9 9.10457 9 8ZM13 4V6H18V4H13ZM7 15C7 13.8954 7.89543 13 9 13H15C16.1046 13 17 13.8954 17 15C17 16.1046 16.1046 17 15 17H9C7.89543 17 7 16.1046 7 15ZM19 15C19 13.8954 19.8954 13 21 13H22C23.1046 13 24 13.8954 24 15C24 16.1046 23.1046 17 22 17H21C19.8954 17 19 16.1046 19 15ZM7 22C7 20.8954 7.89543 20 9 20H15C16.1046 20 17 20.8954 17 22C17 23.1046 16.1046 24 15 24H9C7.89543 24 7 23.1046 7 22ZM19 22C19 20.8954 19.8954 20 21 20H22C23.1046 20 24 20.8954 24 22C24 23.1046 23.1046 24 22 24H21C19.8954 24 19 23.1046 19 22ZM7 29C7 27.8954 7.89543 27 9 27H15C16.1046 27 17 27.8954 17 29C17 30.1046 16.1046 31 15 31H9C7.89543 31 7 30.1046 7 29ZM19 29C19 27.8954 19.8954 27 21 27H22C23.1046 27 24 27.8954 24 29C24 30.1046 23.1046 31 22 31H21C19.8954 31 19 30.1046 19 29Z" fill="white"/>
</svg>
