<svg width="28" height="28" viewBox="0 0 28 28" fill="none" xmlns="http://www.w3.org/2000/svg">
<path d="M11.312 12.404C11.382 11.942 11.536 11.536 11.732 11.186C11.928 10.836 12.208 10.542 12.558 10.318C12.894 10.108 13.314 10.01 13.832 9.996C14.154 10.01 14.448 10.066 14.714 10.178C14.994 10.304 15.246 10.472 15.442 10.682C15.638 10.892 15.792 11.144 15.918 11.424C16.044 11.704 16.1 12.012 16.114 12.32H18.62C18.592 11.662 18.466 11.06 18.228 10.514C17.99 9.968 17.668 9.492 17.248 9.1C16.828 8.708 16.324 8.4 15.736 8.176C15.148 7.952 14.504 7.854 13.79 7.854C12.88 7.854 12.082 8.008 11.41 8.33C10.738 8.652 10.178 9.072 9.73 9.618C9.282 10.164 8.946 10.794 8.736 11.522C8.526 12.25 8.4 13.006 8.4 13.818V14.196C8.4 15.008 8.512 15.764 8.722 16.492C8.932 17.22 9.268 17.85 9.716 18.382C10.164 18.914 10.724 19.348 11.396 19.656C12.068 19.964 12.866 20.132 13.776 20.132C14.434 20.132 15.05 20.02 15.624 19.81C16.198 19.6 16.702 19.306 17.136 18.928C17.57 18.55 17.92 18.116 18.172 17.612C18.424 17.108 18.578 16.576 18.592 16.002H16.086C16.072 16.296 16.002 16.562 15.876 16.814C15.75 17.066 15.582 17.276 15.372 17.458C15.162 17.64 14.924 17.78 14.644 17.878C14.378 17.976 14.098 18.004 13.804 18.018C13.3 18.004 12.88 17.906 12.558 17.696C12.208 17.472 11.928 17.178 11.732 16.828C11.536 16.478 11.382 16.058 11.312 15.596C11.242 15.134 11.2 14.658 11.2 14.196V13.818C11.2 13.328 11.242 12.866 11.312 12.404V12.404ZM14 0C6.272 0 0 6.272 0 14C0 21.728 6.272 28 14 28C21.728 28 28 21.728 28 14C28 6.272 21.728 0 14 0ZM14 25.2C7.826 25.2 2.8 20.174 2.8 14C2.8 7.826 7.826 2.8 14 2.8C20.174 2.8 25.2 7.826 25.2 14C25.2 20.174 20.174 25.2 14 25.2Z" fill="white"/>
</svg>
